<svg width="267" height="" viewBox="0 0 267 177" fill="none" xmlns="http://www.w3.org/2000/svg">
<path fill-rule="evenodd" clip-rule="evenodd" d="M119.67 105.979L121.241 114.875L102.586 118.159C93.4366 119.769 84.445 118.497 76.5434 114.995C70.9615 130.035 56.4823 140.752 39.5 140.752C17.6848 140.752 0 123.067 0 101.252V39.9295H28.589C39.2216 39.9295 49.0854 43.2213 57.2168 48.8414C63.7007 39.0902 73.955 31.8705 86.3368 29.5284C85.2958 16.568 94.2709 4.70669 107.337 2.40692C121.214 -0.0356543 134.45 9.23255 136.901 23.108L137.9 28.7659C139.73 28.2351 141.665 27.9507 143.667 27.9507C159.147 27.9507 172.639 36.4604 179.721 49.0571C184.505 40.5753 193.116 34.3989 203.526 33.1231C220.937 30.989 236.788 43.3728 238.929 60.7831L247.848 133.293L184.796 141.021L183.781 132.766H123V105.95C121.88 106.033 120.768 106.042 119.67 105.979Z" fill="#07480B"/>
<path fill-rule="evenodd" clip-rule="evenodd" d="M121 176H0V129.083H67.6101C52.8876 112.191 52.5064 86.6193 67.6458 69.2341C84.2101 50.2126 113.081 48.1937 132.132 64.7248L152.785 82.6469C163.195 71.7805 180.427 70.8908 191.912 80.857L203.689 91.0758C210.03 62.6814 235.38 41.4587 265.686 41.4587V129.083H266V176H215H121Z" fill="#042B0A"/>
<path fill-rule="evenodd" clip-rule="evenodd" d="M0 113.977C0 104.773 7.46192 97.3106 16.6667 97.3106C34.2714 97.3106 48.6886 110.958 49.9154 128.251L89.2966 103.162C98.659 97.1976 111.084 99.9522 117.049 109.315C125.995 123.358 121.864 141.996 107.82 150.943L68 176.311H50H39H0V113.977ZM161.8 117.428C155.835 126.791 158.59 139.216 167.952 145.18L216.248 175.948L243.248 133.568L203.428 108.2C189.384 99.2528 170.747 103.385 161.8 117.428Z" fill="#085213"/>
<path fill-rule="evenodd" clip-rule="evenodd" d="M0 113.977C0 104.773 7.46192 97.3106 16.6667 97.3106C35.0762 97.3106 50 112.234 50 130.644V144.311H68V176.311H50H39H0V113.977ZM216 119.1C216 107.999 224.999 99 236.1 99C252.751 99 266.25 112.499 266.25 129.15V176.364H216V119.1Z" fill="#085213"/>
<path fill-rule="evenodd" clip-rule="evenodd" d="M248.534 146.743C241.361 140.676 240.429 129.925 246.458 122.713L247.452 121.524C248.962 119.718 251.644 119.484 253.444 121C258.843 125.547 259.55 133.624 255.022 139.039L250.78 144.114L254.684 155.027C255.389 152.573 257.216 150.479 259.794 149.537L263.343 148.24C264.413 147.849 265.595 148.4 265.983 149.471C267.148 152.682 265.49 156.236 262.282 157.409L256.315 159.588L261.825 174.99L259 176L248.534 146.743ZM235.811 153.161C239.474 157.542 245.984 158.112 250.352 154.433L243.828 146.63C243.003 145.644 241.987 144.915 240.879 144.453L240.875 144.418L240.81 144.424C238.24 143.381 235.195 143.762 232.922 145.676C231.83 146.595 231.688 148.229 232.603 149.324L235.811 153.161ZM257.179 173.744C252.811 177.423 246.301 176.853 242.638 172.472L239.43 168.635C238.515 167.539 238.657 165.906 239.749 164.986C243.025 162.228 247.908 162.655 250.655 165.941L255.664 171.932L256.172 172.157L256.062 172.408L257.179 173.744Z" fill="white"/>
<path fill-rule="evenodd" clip-rule="evenodd" d="M29.4266 158.534C35.4941 151.361 46.2446 150.429 53.4564 156.458L54.6461 157.452C56.4514 158.962 56.6861 161.644 55.1703 163.444C50.6229 168.843 42.5462 169.55 37.1303 165.022L32.056 160.78L21.1431 164.684C23.5964 165.389 25.6912 167.216 26.6331 169.794L27.9298 173.343C28.3205 174.413 27.7694 175.595 26.6989 175.983C23.4873 177.148 19.9335 175.49 18.7613 172.282L16.5817 166.315L1.18025 171.825L0.1698 169L29.4266 158.534ZM23.0085 145.811C18.6274 149.474 18.0579 155.984 21.7364 160.352L29.54 153.828C30.526 153.003 31.2546 151.987 31.7169 150.879L31.7519 150.875L31.7453 150.81C32.7886 148.24 32.4079 145.195 30.4941 142.922C29.5744 141.83 27.941 141.688 26.8458 142.603L23.0085 145.811ZM2.42567 167.179C-1.25285 162.811 -0.683308 156.301 3.69778 152.638L7.53503 149.43C8.63031 148.515 10.2637 148.657 11.1833 149.749C13.9422 153.025 13.5151 157.908 10.2293 160.655L4.23774 165.664L4.01315 166.172L3.76142 166.062L2.42567 167.179Z" fill="white"/>
<path fill-rule="evenodd" clip-rule="evenodd" d="M139.62 141.817C134.928 133.657 137.726 123.215 145.869 118.495L147.21 117.717C149.246 116.537 151.847 117.234 153.02 119.273C156.538 125.393 154.44 133.225 148.333 136.765L142.623 140.076L142.742 151.415C144.255 149.497 146.598 148.265 149.227 148.261L153.006 148.257C154.144 148.256 155.066 149.178 155.065 150.316C155.061 153.733 152.288 156.505 148.872 156.509L142.796 156.517L143 175.969L140 176L139.641 141.804L139.62 141.817ZM125.451 143.465C127.394 148.835 133.317 151.596 138.679 149.633L135.218 140.069C134.78 138.861 134.074 137.828 133.191 137.015L133.2 136.981L133.136 136.965C131.078 135.106 128.086 134.422 125.296 135.443C123.956 135.933 123.263 137.419 123.749 138.762L125.451 143.465ZM138.49 170.115C133.127 172.077 127.205 169.316 125.261 163.946L123.559 159.243C123.073 157.901 123.766 156.415 125.107 155.924C129.129 154.452 133.571 156.523 135.028 160.55L137.686 167.894L138.087 168.279L137.897 168.477L138.49 170.115Z" fill="white"/>
<line x1="34.0869" y1="158.508" x2="51.0869" y2="161.508" stroke="#07480B"/>
<line x1="150.452" y1="118.214" x2="141.452" y2="137.214" stroke="#07480B"/>
<line x1="37.735" y1="158.576" x2="45.735" y2="153.576" stroke="#07480B"/>
<line x1="47.4743" y1="160.842" x2="49.4743" y2="166.842" stroke="#07480B"/>
<line x1="142.646" y1="132.354" x2="138.646" y2="128.354" stroke="#07480B"/>
<line x1="145.824" y1="128.532" x2="153.824" y2="125.532" stroke="#07480B"/>
<line x1="248.502" y1="143.958" x2="250.502" y2="119.958" stroke="#07480B"/>
<line x1="248.776" y1="137.553" x2="256.776" y2="133.553" stroke="#07480B"/>
<line x1="248.61" y1="131.312" x2="244.61" y2="126.312" stroke="#07480B"/>
</svg>
