<svg width="80" height="83" viewBox="0 0 80 83" fill="none" xmlns="http://www.w3.org/2000/svg">
<path fill-rule="evenodd" clip-rule="evenodd" d="M26.2398 3.00092C27.5155 0.791268 30.361 0.045709 32.5706 1.32146C41.6343 6.55435 44.8216 18.1913 39.5887 27.2549L38.6816 28.826L38.9894 28.7942L41.8038 56H75.5C77.9853 56 80 58.0147 80 60.5C80 72.9264 69.9264 83 57.5 83H22.5C10.0736 83 0 72.9264 0 60.5C0 58.0147 2.01472 56 4.5 56H39.7931L37.1707 30.6503L33.0037 28.2445C24.1651 23.1415 21.1368 11.8396 26.2398 3.00092ZM56.9523 32.2112C56.7971 30.4377 55.2097 29.1279 53.4363 29.283C46.0704 29.9274 40.5224 36.4297 41.1668 43.7956L41.4047 46.5145L45.2313 46.1797C52.3253 45.559 57.5729 39.3051 56.9523 32.2112ZM16.2971 34.2673C15.5807 32.731 16.2454 30.9048 17.7817 30.1885C23.9268 27.323 31.2313 29.9816 34.0968 36.1267L38.3528 45.2537C30.6714 48.8356 21.5408 45.5123 17.9589 37.8309L16.2971 34.2673Z" fill="#07480B"/>
<path fill-rule="evenodd" clip-rule="evenodd" d="M37 29L29 3.00002L29.9558 2.70593L33.3847 13.8501L39.7253 12.0385L40 13L33.6789 14.806L37.9558 28.7059L37 29ZM33 18L25 15L24.6489 15.9363L32.6489 18.9363L33 18ZM26.9586 37.8138L36 44L35.4353 44.8253L31.2765 41.9798L25.4472 44.8944L25 44L30.3324 41.3338L16.4353 31.8253L17 31L25.7505 36.9872L24.0238 29.2169L25 29L26.9586 37.8138ZM43 45L49 38L55 31L54.2407 30.3492L48.8118 36.6829L48 31L47.01 31.1414L47.946 37.6931L42.2407 44.3492L43 45ZM46 42V43H52V42H46Z" fill="white"/>
</svg>
